PathFileType	4	(X/Y/Z)	W08_1_OpenSim.trc																																																																																																																						
DataRate	CameraRate	NumFrames	NumMarkers	Units	OrigDataRate	OrigDataStartFrame	OrigNumFrames																																																																																																																		
100	100	6	40	mm	100	1	3000																																																																																																																		
Frame#	Time	R.ASIS			R.PSIS			S2			L.PSIS			L.ASIS			R.TH1			R.TH2			R.TH3			R.MKnee			R.Knee			R.SH1			R.SH2			R.SH3			R.SH4			R.Ankle			R.MAnkle			R.Heel			R.MT5			R.MT1			L.TH1			L.TH2			L.TH3			L.TH4			L.MKnee			L.Knee			L.SH1			L.SH2			L.SH3			L.Ankle			L.MAnkle			L.Heel			L.MT5			L.MT1			R.Acr			L.Acr			C7			T10			Clav			Sternum			R.Back		
		X1	Y1	Z1	X2	Y2	Z2	X3	Y3	Z3	X4	Y4	Z4	X5	Y5	Z5	X6	Y6	Z6	X7	Y7	Z7	X8	Y8	Z8	X9	Y9	Z9	X10	Y10	Z10	X11	Y11	Z11	X12	Y12	Z12	X13	Y13	Z13	X14	Y14	Z14	X15	Y15	Z15	X16	Y16	Z16	X17	Y17	Z17	X18	Y18	Z18	X19	Y19	Z19	X20	Y20	Z20	X21	Y21	Z21	X22	Y22	Z22	X23	Y23	Z23	X24	Y24	Z24	X25	Y25	Z25	X26	Y26	Z26	X27	Y27	Z27	X28	Y28	Z28	X29	Y29	Z29	X30	Y30	Z30	X31	Y31	Z31	X32	Y32	Z32	X33	Y33	Z33	X34	Y34	Z34	X35	Y35	Z35	X36	Y36	Z36	X37	Y37	Z37	X38	Y38	Z38	X39	Y39	Z39	X40	Y40	Z40
1	0	1003.8941	1072.0548	-357.3251	808.3085	1071.3177	-443.881	797.7562	1064.7637	-488.1818	799.9781	1068.7228	-538.4371	971.4451	1062.999	-652.8356	1010.422	745.8264	-339.5597	930.2487	735.3114	-327.3852	942.7609	626.9986	-343.912	973.1447	509.4963	-475.2008	980.4756	511.424	-358.8187	997.5795	346.219	-364.2627	1005.1011	236.5613	-388.1816	916.376	338.8808	-349.1183	928.8768	227.1831	-364.9877	955.1425	72.6327	-388.9513	990.5515	95.4608	-481.7648	896.9026	35.2888	-449.4043	1070.9932	38.3307	-364.6668	1120.2094	40.9115	-453.2124	1027.4124	777.569	-669.221	1051.4657	671.1923	-671.231	946.9687	756.1032	-678.1631	974.3032	649.5659	-672.5591	1064.7805	507.9019	-558.8889	1047.1167	523.9207	-674.7242	962.8891	421.7651	-690.3951	910.6086	484.9707	-682.3798	828.2188	412.3354	-678.0309	709.1564	245.8247	-685.8519	743.5649	226.8493	-591.092	642.6795	268.03	-625.4344	738.4709	131.6282	-707.5115	782.2595	110.0093	-610.7989	948.6049	1457.59	-327.2099	884.1023	1456.3093	-650.2725	856.3101	1500.1462	-479.9407	835.6611	1173.14	-490.2869	995.4397	1408.4442	-503.7288	1027.1179	1266.2316	-503.6535	796.3957	1398.4446	-384.895
2	0.01	1002.6736	1072.2122	-356.3983	806.938	1071.6788	-442.9548	796.3395	1065.0925	-487.2832	798.446	1069.1177	-537.537	969.7911	1063.7739	-651.9183	1006.4629	745.3108	-338.8137	926.1713	735.8058	-326.5345	937.6166	627.1961	-343.0886	966.0529	509.6184	-474.4128	973.986	511.2976	-358.0533	990.3771	346.1647	-363.6975	997.3805	236.503	-387.8016	909.252	338.9894	-348.3968	921.2792	227.2541	-364.54	946.9756	72.5687	-388.9029	982.4775	95.4928	-481.707	889.0407	35.1401	-449.305	1062.9662	38.245	-364.6546	1112.1298	40.9237	-453.1679	1028.205	780.4153	-668.8569	1054.0381	674.5388	-670.9347	948.3222	757.8275	-677.8231	977.2286	651.7537	-672.3896	1069.854	511.3489	-558.2246	1052.1316	527.051	-674.1827	969.7562	423.3293	-689.9471	916.2931	485.4519	-681.4229	835.4416	411.1678	-677.1755	719.8378	242.0849	-685.545	754.6119	223.7233	-590.7713	652.7012	262.6834	-624.9411	751.7543	128.6587	-707.385	795.9039	107.8604	-610.7247	947.5939	1458.5758	-326.4854	882.5148	1456.8679	-649.5184	855.2171	1500.7767	-479.1326	834.5017	1173.7196	-489.1271	994.2568	1409.1331	-503.079	1026.2144	1267.0747	-502.7747	795.5067	1399.1246	-383.85
3	0.02	1001.439	1072.3323	-355.4971	805.5507	1072.0209	-442.0418	794.9035	1065.4144	-486.3996	796.9099	1069.4985	-536.6528	968.1541	1064.5148	-651.0173	1002.5261	744.793	-338.0963	922.1127	736.2779	-325.6902	932.467	627.4021	-342.2809	959.0324	509.7205	-473.6593	967.5252	511.1708	-357.3022	983.1862	346.0941	-363.1463	989.6769	236.4312	-387.4332	902.1418	339.0997	-347.6987	913.6888	227.325	-364.0997	938.8168	72.507	-388.8619	974.4	95.519	-481.656	881.1646	34.9988	-449.2171	1054.9271	38.1699	-364.6322	1104.042	40.9415	-453.1282	1028.9609	783.2253	-668.5216	1056.5026	677.8229	-670.6591	949.5999	759.529	-677.5154	980.0427	653.913	-672.2414	1074.7588	514.7495	-557.5827	1056.9915	530.1394	-673.6644	976.5685	424.7908	-689.528	921.8695	485.7649	-680.5451	842.6418	409.7799	-676.3989	730.6878	238.0392	-685.2943	765.8228	220.3489	-590.5001	662.901	256.9548	-624.5427	765.3233	125.4389	-707.2803	809.8259	105.54	-610.6553	946.6063	1459.5195	-325.7869	880.9484	1457.3928	-648.7814	854.1346	1501.3845	-478.3428	833.3347	1174.2808	-487.9877	993.087	1409.7881	-502.4407	1025.324	1267.8684	-501.9037	794.6108	1399.7927	-382.8254
4	0.03	1000.1755	1072.3854	-354.64	804.1306	1072.3293	-441.1579	793.4341	1065.7223	-485.5467	795.3663	1069.8556	-535.8007	966.548	1065.1913	-650.1457	998.6273	744.2696	-337.4328	918.091	736.7075	-324.8594	927.3182	627.6198	-341.5015	952.1307	509.7904	-472.9693	961.1217	511.043	-356.5766	976.0218	345.9924	-362.623	982.0084	236.3345	-387.087	895.0603	339.2127	-347.0424	906.1168	227.3953	-363.6744	930.6708	72.4494	-388.832	966.3174	95.5352	-481.617	873.2653	34.8696	-449.1502	1046.869	38.1123	-364.5917	1095.9364	40.9706	-453.0971	1029.6417	785.9589	-668.2411	1058.7632	680.9902	-670.4231	950.7347	761.1858	-677.2669	982.6472	656.0158	-672.1321	1079.3474	518.0541	-556.9913	1061.5601	533.1414	-673.1879	983.2776	426.059	-689.1642	927.2469	485.7642	-679.8175	849.8038	407.9829	-675.7715	741.8553	233.4345	-685.1483	777.3411	216.5223	-590.3223	673.4366	250.5298	-624.3112	779.4188	121.7647	-707.2201	824.2595	102.9107	-610.6016	945.661	1460.3857	-325.1345	879.4212	1457.8535	-648.0754	853.0727	1501.9484	-477.5887	832.1528	1174.8061	-486.887	991.9409	1410.3783	-501.8263	1024.448	1268.5682	-501.0529	793.7064	1400.4367	-381.8385
5	0.04	998.8688	1072.3535	-353.833	802.6661	1072.5953	-440.3216	791.9247	1066.0104	-484.7411	793.8122	1070.1849	-534.9986	964.9823	1065.7815	-649.3105	994.7733	743.7393	-336.8419	914.1232	737.078	-324.05	922.195	627.8436	-340.7601	945.3719	509.8252	-472.3625	954.8035	510.9115	-355.8846	968.9047	345.8486	-362.1383	974.3915	236.2058	-386.7716	888.0237	339.3278	-346.4382	898.579	227.4651	-363.2719	922.5397	72.3962	-388.8124	958.2299	95.5396	-481.592	865.3406	34.7539	-449.1104	1038.7926	38.074	-364.5299	1087.8038	41.0145	-453.0761	1030.2091	788.5731	-668.0361	1060.7432	683.995	-670.2426	951.6743	762.7766	-677.0958	984.9639	658.0346	-672.0755	1083.5061	521.2112	-556.4858	1065.7338	536.0113	-672.7666	989.8473	427.0645	-688.8789	932.3621	485.3405	-679.2959	856.9225	405.6408	-675.3485	753.4582	228.1015	-685.1444	789.2802	212.109	-590.272	684.4352	243.2	-624.2886	794.2113	117.5078	-707.2289	839.3707	99.8887	-610.5848	944.7698	1461.1481	-324.5419	877.9454	1458.2252	-647.4119	852.0403	1502.449	-476.8846	830.9497	1175.2813	-485.8396	990.8258	1410.8771	-501.2497	1023.568	1269.1385	-500.2424	792.797	1401.0446	-380.9017
6	0.05	997.5059	1072.2306	-353.0684	801.1509	1072.8152	-439.5514	790.3732	1066.2733	-484.0003	792.2454	1070.4863	-534.264	963.4631	1066.2737	-648.5129	990.9662	743.2028	-336.3345	910.2239	737.3767	-323.2718	917.1389	628.0595	-340.0626	938.7742	509.8271	-471.8445	948.5984	510.7714	-355.2338	961.8607	345.6567	-361.6988	966.8389	236.0432	-386.4928	881.0497	339.4427	-345.8885	891.0944	227.5351	-362.8992	914.4255	72.3474	-388.8008	950.1398	95.5326	-481.5812	857.3912	34.651	-449.0991	1030.7042	38.0522	-364.4487	1079.6403	41.0725	-453.0623	1030.6266	791.0272	-667.9171	1062.3878	686.7983	-670.1295	952.3825	764.2799	-677.011	986.9356	659.9419	-672.0812	1087.1573	524.1699	-556.1005	1069.4441	538.7058	-672.4097	996.2536	427.7647	-688.691	937.1814	484.4247	-679.0166	864.0017	402.6768	-675.1671	765.582	221.9627	-685.3077	801.7204	207.0487	-590.3737	695.9908	234.8694	-624.4926	809.7976	112.6257	-707.3317	855.256	96.4452	-610.6326	943.9354	1461.7882	-324.0165	876.5278	1458.4897	-646.7999	851.0456	1502.8728	-476.2394	829.7204	1175.6951	-484.8577	989.7469	1411.2634	-500.7232	1022.6506	1269.5544	-499.4969	791.8885	1401.6056	-380.0229
